<?xml version="1.0" encoding="utf-8"?>
<svg version="1.1" id="Layer_1" xmlns="http://www.w3.org/2000/svg" xmlns:xlink="http://www.w3.org/1999/xlink" x="0px" y="0px"
	 viewBox="0 0 283.5 105.7" style="enable-background:new 0 0 283.5 105.7;" xml:space="preserve">
<style type="text/css">
	.st0{ fill: #1C84F1; }
	.st2{ fill: #5850ec; }
</style>
<g>
	<g>
		<path class="st2" d="M47.4,26c12.8,0,23.5,8.8,23.5,24.5c0,1,0,1.9-0.1,3.3c0,0.1-0.1,0.3-0.3,0.3l-37.5,0c-0.2,0-0.3,0.1-0.3,0.3
			C33.4,62.2,39.5,67,47.5,67c7.3,0,10.8-2.7,13.4-6.6c0.3-0.4,0.9-0.6,1.3-0.3l6.7,4.8c0.4,0.3,0.5,0.9,0.2,1.3
			c-2.9,4.2-7.1,7.4-12.3,9.2C38,81.5,18.6,65.5,22.4,46.1C24.6,34.4,34.4,26,47.4,26z M33.3,46.7l26.7,0c0.7,0,1.2-0.6,1-1.3
			C59.4,38.6,53.6,35,47.2,35c-6.4,0-12.8,3.5-14.9,10.4C32.1,46,32.6,46.7,33.3,46.7z"/>
	</g>
	<g>
		<path class="st0" d="M196.9,64.9h9.9c0.3,0,0.5,0.2,0.5,0.5v9.9c0,0.3-0.2,0.5-0.5,0.5h-9.9c-0.3,0-0.5-0.2-0.5-0.5v-9.9
			C196.4,65.1,196.7,64.9,196.9,64.9z"/>
	</g>
	<path class="st2" d="M280.8,50.5V28.4c0-0.8-0.6-1.5-1.4-1.5h-7c-0.8,0-1.4,0.7-1.4,1.5v22.1h0c0,10.4-6.6,15.5-14.6,15.5
		c-6.6,0-13.6-7.1-13.6-15.5h0V28.6c0-0.9-0.7-1.7-1.6-1.7h-6.7c-0.9,0-1.6,0.8-1.6,1.7v21.8h0c0,15.9,10.8,26.2,24,26.2
		c5.4,0,10.1-1.4,14.3-5.6l0.1,2.2v4.5c0,8-6.7,14.8-15.1,14.9c-6.2,0-11.4-2.9-13.1-8.1c-0.3-1-1.3-1.7-2.4-1.7h-5.8
		c-1,0-1.7,0.8-1.6,1.7c1.6,8.4,8.3,14.3,16.9,16.3c16.8,3.9,30.7-7.3,30.7-23.6c0-7.8,0-16.9,0-25
		C280.8,51.7,280.8,51.1,280.8,50.5L280.8,50.5z"/>
	<g>
		<path class="st2" d="M166,26.3c-6.5,0-12.4,2.5-16.9,6.5v-4.4c0-0.8-0.6-1.4-1.4-1.4H140c-0.8,0-1.4,0.6-1.4,1.4V100
			c0,0.8,0.6,1.4,1.4,1.4h7.8c0.8,0,1.4-0.6,1.4-1.4V70.3c4.5,4.1,10.4,6.5,16.9,6.5c13.9,0,25.2-11.3,25.2-25.2
			C191.3,37.7,179.9,26.3,166,26.3z M165.2,67.9c-8.9,0-16.5-6.9-16.5-15.8c0-8.9,7.6-16.5,16.5-16.5c8.9,0,16,7.3,16,16.2
			C181.2,60.7,174.2,67.9,165.2,67.9z"/>
	</g>
	<path class="st2" d="M129.6,26h-7.8c-0.8,0-1.4,0.6-1.4,1.4v5.4c-4.5-4.1-10.4-6.5-16.9-6.5c-13.9,0-25.2,11.3-25.2,25.2
		c0,13.9,11.3,25.2,25.2,25.2c6.5,0,12.4-2.5,16.9-6.5v5.1c0,0.8,0.6,1.4,1.4,1.4h7.8c0.8,0,1.4-0.6,1.4-1.4V27.4
		C131,26.6,130.3,26,129.6,26z M104.3,67.8c-8.9,0-16-7.3-16-16.2c0-8.9,7.1-16.2,16-16.2c8.7,0,16.1,6.9,16.5,15.5v1.4
		C120.4,60.9,112.9,67.8,104.3,67.8z"/>
	<g>
		<path class="st2" d="M5.5,2.5h8.3c0.6,0,1.1,0.5,1.1,1.1v71c0,0.6-0.5,1.1-1.1,1.1H5.5c-0.6,0-1.1-0.5-1.1-1.1v-71
			C4.4,3,4.9,2.5,5.5,2.5z"/>
	</g>
	<g>
		<path class="st2" d="M216.4,2.7h8.3c0.6,0,1.1,0.5,1.1,1.1v71c0,0.6-0.5,1.1-1.1,1.1h-8.3c-0.6,0-1.1-0.5-1.1-1.1v-71
			C215.3,3.2,215.8,2.7,216.4,2.7z"/>
	</g>
</g>
</svg>
